/* XPM */
static char * grama_1final2_xpm[] = {
"40 40 456 2",
"  	c #80D010",
". 	c #7FD110",
"+ 	c #82CE10",
"@ 	c #88C910",
"# 	c #94BD0F",
"$ 	c #92BF0F",
"% 	c #AB9D0E",
"& 	c #9CB71B",
"* 	c #82CF12",
"= 	c #96BB0F",
"- 	c #B8810D",
"; 	c #B8792A",
"> 	c #BE8443",
", 	c #AFA42D",
"' 	c #85CD15",
") 	c #99B70F",
"! 	c #BA7C0D",
"~ 	c #B17C34",
"{ 	c #9E7A6F",
"] 	c #CA938E",
"^ 	c #CE846D",
"/ 	c #B3972A",
"( 	c #8AC916",
"_ 	c #B48B0D",
": 	c #94B72D",
"< 	c #928064",
"[ 	c #A5A5A4",
"} 	c #D1C5C4",
"| 	c #D5A4A2",
"1 	c #CC8068",
"2 	c #ABAA2B",
"3 	c #8EC30F",
"4 	c #A4A80E",
"5 	c #81CD28",
"6 	c #8CA36F",
"7 	c #B0B0AB",
"8 	c #BCBCBC",
"9 	c #C4C5C5",
"0 	c #B3A8A8",
"a 	c #B39B74",
"b 	c #9EB42F",
"c 	c #83CE13",
"d 	c #84CD10",
"e 	c #8DC40F",
"f 	c #80CD1C",
"g 	c #7FC729",
"h 	c #8BAD74",
"i 	c #B7B8B7",
"j 	c #E5E5E4",
"k 	c #DEDEDE",
"l 	c #AEAEAE",
"m 	c #96A98C",
"n 	c #92BC6C",
"o 	c #85CB24",
"p 	c #84CE2C",
"q 	c #90C05C",
"r 	c #93A870",
"s 	c #ABA4A1",
"t 	c #DCDCDC",
"u 	c #F0F0EF",
"v 	c #D6D6D5",
"w 	c #9FAC97",
"x 	c #91C36D",
"y 	c #85CE3C",
"z 	c #82CD27",
"A 	c #86C93A",
"B 	c #A6BE82",
"C 	c #979A78",
"D 	c #907166",
"E 	c #A5887F",
"F 	c #C3BCB7",
"G 	c #D4D3D2",
"H 	c #B7BFB4",
"I 	c #83B45D",
"J 	c #81C932",
"K 	c #8BC610",
"L 	c #87CD39",
"M 	c #9ABE71",
"N 	c #A4AF87",
"O 	c #A1928D",
"P 	c #6C4E43",
"Q 	c #8C4B2D",
"R 	c #AE5724",
"S 	c #A9806F",
"T 	c #9F9B95",
"U 	c #97B184",
"V 	c #7FC43B",
"W 	c #A2AB0E",
"X 	c #82CD28",
"Y 	c #89C846",
"Z 	c #B1BF96",
"` 	c #9E9D8A",
" .	c #8B7D77",
"..	c #644337",
"+.	c #7D3114",
"@.	c #B1561A",
"#.	c #B3531A",
"$.	c #884A31",
"%.	c #938B75",
"&.	c #8ABB58",
"*.	c #86CD29",
"=.	c #95C464",
"-.	c #AEB893",
";.	c #A49692",
">.	c #574742",
",.	c #5A3F30",
"'.	c #843315",
").	c #B34F1C",
"!.	c #C9641A",
"~.	c #914326",
"{.	c #8F736C",
"].	c #90A96A",
"^.	c #81CF1E",
"/.	c #87CC19",
"(.	c #A6AF42",
"_.	c #B0A176",
":.	c #9E8B86",
"<.	c #503936",
"[.	c #32150E",
"}.	c #6C291C",
"|.	c #A14020",
"1.	c #BE5820",
"2.	c #9C421C",
"3.	c #6F4038",
"4.	c #87896A",
"5.	c #7EB93F",
"6.	c #7FCE10",
"7.	c #98B80F",
"8.	c #85CF23",
"9.	c #B4B262",
"0.	c #D4A07E",
"a.	c #D08A81",
"b.	c #94443D",
"c.	c #691710",
"d.	c #5C1914",
"e.	c #82291C",
"f.	c #A63F1E",
"g.	c #973D1C",
"h.	c #6B260E",
"i.	c #60524B",
"j.	c #99A77B",
"k.	c #86CA3F",
"l.	c #AD9A0E",
"m.	c #82CF18",
"n.	c #B2BD70",
"o.	c #DBB6A5",
"p.	c #EAB2AC",
"q.	c #E26A63",
"r.	c #BF2A22",
"s.	c #9B251D",
"t.	c #7B2419",
"u.	c #88301B",
"v.	c #7E2A18",
"w.	c #62210E",
"x.	c #574338",
"y.	c #93897F",
"z.	c #90BB5F",
"A.	c #ADB750",
"B.	c #DBAA94",
"C.	c #EAC5BF",
"D.	c #E4A19E",
"E.	c #D65A58",
"F.	c #C93333",
"G.	c #B42620",
"H.	c #A33525",
"I.	c #8A301D",
"J.	c #641F11",
"K.	c #5F332A",
"L.	c #80726B",
"M.	c #8C9A6B",
"N.	c #7BC025",
"O.	c #80CF11",
"P.	c #A0C051",
"Q.	c #D3946E",
"R.	c #EC9D91",
"S.	c #E5A9A6",
"T.	c #DAA2A1",
"U.	c #CE8E8D",
"V.	c #C16262",
"W.	c #B63A39",
"X.	c #B32E25",
"Y.	c #A83123",
"Z.	c #872A20",
"`.	c #826964",
" +	c #96917F",
".+	c #8EB061",
"++	c #80CC1E",
"@+	c #8DC956",
"#+	c #AFA98C",
"$+	c #CC8B7B",
"%+	c #DF7F76",
"&+	c #D98A89",
"*+	c #CF9697",
"=+	c #C58C8B",
"-+	c #BE8F8F",
";+	c #B67775",
">+	c #BF7371",
",+	c #C25856",
"'+	c #AC5953",
")+	c #A07973",
"!+	c #A6A98B",
"~+	c #87CA40",
"{+	c #8CCC45",
"]+	c #A2B586",
"^+	c #898275",
"/+	c #7F544B",
"(+	c #B9362E",
"_+	c #C75D5C",
":+	c #C16D6D",
"<+	c #BD8483",
"[+	c #BE9B99",
"}+	c #BC7B79",
"|+	c #CB7B7A",
"1+	c #DE8681",
"2+	c #E39F98",
"3+	c #C58E7C",
"4+	c #93C24E",
"5+	c #86D035",
"6+	c #A8C680",
"7+	c #96957E",
"8+	c #5D5550",
"9+	c #301B17",
"0+	c #741F15",
"a+	c #A8241F",
"b+	c #B34947",
"c+	c #B67B7A",
"d+	c #BC8785",
"e+	c #C78381",
"f+	c #D98988",
"g+	c #E99F9A",
"h+	c #E8A39B",
"i+	c #B6B464",
"j+	c #83CE18",
"k+	c #81D122",
"l+	c #9FD072",
"m+	c #A5AA87",
"n+	c #726760",
"o+	c #3A2723",
"p+	c #6B2312",
"q+	c #842A18",
"r+	c #89271B",
"s+	c #9C281E",
"t+	c #AE4B49",
"u+	c #C56D6D",
"v+	c #D99997",
"w+	c #E8BEBC",
"x+	c #E9BFBB",
"y+	c #C5B47F",
"z+	c #8DC31E",
"A+	c #80D013",
"B+	c #AE970E",
"C+	c #89CF44",
"D+	c #9DBB7C",
"E+	c #968D85",
"F+	c #433935",
"G+	c #41150A",
"H+	c #852F19",
"I+	c #922F1B",
"J+	c #7B2319",
"K+	c #6C2E28",
"L+	c #942821",
"M+	c #C64B48",
"N+	c #E38F89",
"O+	c #ECB5B0",
"P+	c #CFBA99",
"Q+	c #9FB52F",
"R+	c #84CD13",
"S+	c #98C66F",
"T+	c #A09D91",
"U+	c #5D4E47",
"V+	c #360100",
"W+	c #7D3015",
"X+	c #A73F1B",
"Y+	c #80281A",
"Z+	c #561D13",
"`+	c #6B3118",
" @	c #7B3319",
".@	c #9D473D",
"+@	c #DB8F85",
"@@	c #D5A27E",
"#@	c #A2AF34",
"$@	c #86CA15",
"%@	c #8CC951",
"&@	c #ACAD99",
"*@	c #83706B",
"=@	c #4A1500",
"-@	c #6E2915",
";@	c #AE4A1B",
">@	c #8D341A",
",@	c #581914",
"'@	c #531F10",
")@	c #893A1C",
"!@	c #612B1A",
"~@	c #7D6F6A",
"{@	c #B3A388",
"]@	c #98AB36",
"^@	c #87C70F",
"/@	c #B38D0D",
"(@	c #81CF1A",
"_@	c #88CB43",
":@	c #A8AF92",
"<@	c #A58A81",
"[@	c #824C3E",
"}@	c #6D2E18",
"|@	c #833017",
"1@	c #8F3419",
"2@	c #672015",
"3@	c #571F11",
"4@	c #833620",
"5@	c #7C534B",
"6@	c #7D706C",
"7@	c #8B8C72",
"8@	c #7AAB3F",
"9@	c #7DC40E",
"0@	c #A0AE0F",
"a@	c #87CC3A",
"b@	c #8FC259",
"c@	c #9DAA85",
"d@	c #B19285",
"e@	c #AF7058",
"f@	c #994327",
"g@	c #6F2615",
"h@	c #6E2317",
"i@	c #712E16",
"j@	c #692C13",
"k@	c #782E19",
"l@	c #855A52",
"m@	c #8D7E79",
"n@	c #A29E8C",
"o@	c #84B64D",
"p@	c #7AC50F",
"q@	c #85C936",
"r@	c #94AE6D",
"s@	c #939879",
"t@	c #8B7770",
"u@	c #9A5D45",
"v@	c #B2582B",
"w@	c #A34119",
"x@	c #9B361C",
"y@	c #842D1A",
"z@	c #6C3215",
"A@	c #6F2C13",
"B@	c #86615A",
"C@	c #8F8178",
"D@	c #979581",
"E@	c #8AC052",
"F@	c #7ECD10",
"G@	c #84CB2F",
"H@	c #95A56E",
"I@	c #7B7662",
"J@	c #645754",
"K@	c #4D2F27",
"L@	c #80321C",
"M@	c #A23F1B",
"N@	c #B3461E",
"O@	c #BB491F",
"P@	c #812C19",
"Q@	c #752C12",
"R@	c #865D55",
"S@	c #918579",
"T@	c #8A956B",
"U@	c #85BA4B",
"V@	c #82CF24",
"W@	c #A0BD7C",
"X@	c #7E7767",
"Y@	c #32201D",
"Z@	c #2F1A19",
"`@	c #3F100E",
" #	c #611916",
".#	c #862B1B",
"+#	c #AA3D1F",
"@#	c #9A3B1B",
"##	c #8E361A",
"$#	c #8F4F3F",
"%#	c #9A887C",
"&#	c #95A372",
"*#	c #88BC4B",
"=#	c #86CB10",
"-#	c #83CE29",
";#	c #92B06E",
">#	c #58453F",
",#	c #3A211B",
"'#	c #300F0D",
")#	c #3A1111",
"!#	c #491918",
"~#	c #62201D",
"{#	c #692116",
"]#	c #72230F",
"^#	c #8E4737",
"/#	c #86695E",
"(#	c #9BAC76",
"_#	c #90C359",
":#	c #80CF16",
"<#	c #A6A50E",
"[#	c #7FCE16",
"}#	c #7DB441",
"|#	c #697948",
"1#	c #50453F",
"2#	c #342321",
"3#	c #2A0909",
"4#	c #351716",
"5#	c #3B1C1A",
"6#	c #330D0C",
"7#	c #57302C",
"8#	c #8C7671",
"9#	c #909970",
"0#	c #94C25F",
"a#	c #82CF20",
"b#	c #B6870D",
"c#	c #7FC922",
"d#	c #8BAE62",
"e#	c #949683",
"f#	c #655E58",
"g#	c #382F2C",
"h#	c #190707",
"i#	c #1D0D0C",
"j#	c #281715",
"k#	c #665451",
"l#	c #8A7D72",
"m#	c #88A75C",
"n#	c #82CD25",
"o#	c #86CE36",
"p#	c #BCD5A1",
"q#	c #B3B4A1",
"r#	c #706961",
"s#	c #3C3632",
"t#	c #100908",
"u#	c #2B1E1A",
"v#	c #776762",
"w#	c #8D9072",
"x#	c #80C430",
"y#	c #85D134",
"z#	c #A9C987",
"A#	c #A09F89",
"B#	c #685E55",
"C#	c #382E2B",
"D#	c #554743",
"E#	c #9A8C7D",
"F#	c #7FAF4A",
"G#	c #7CCC0F",
"H#	c #91C00F",
"I#	c #A9A00E",
"J#	c #92B85D",
"K#	c #8A9164",
"L#	c #7A7660",
"M#	c #958A7E",
"N#	c #7A9D4B",
"O#	c #74BD0D",
"P#	c #89C444",
"Q#	c #93C062",
"R#	c #95C266",
"S#	c #81C227",
"T#	c #8CC310",
"U#	c #82D126",
"V#	c #7FD116",
"W#	c #8EC315",
"                . . . . . . . .                 . . . . . . . .                 ",
"                        + + + +                         + + + +                 ",
"                        @ # # @                         @ # # @                 ",
"  .                 .   $ % % $   .                 .   $ % % & * .             ",
"  .                 .   = - - =   .                 .   = - ; > , '             ",
"  .                 .   ) ! ! )   .                 .   ) ~ { ] ^ / (           ",
"  .                 .   = _ _ =   .                 .   : < [ } | 1 2 '         ",
"  .                 .   3 4 4 3   .                 . 5 6 7 8 9 0 a b c         ",
"                        d e e d                   f g h i j k l m n o           ",
"                  . .                           p q r s t u v w x y             ",
"                  . .     . .               z A B C D E F G H I J               ",
"                d K K d                   L M N O P Q R S T U V                 ",
"            .   3 W W 3   .           X Y Z `  ...+.@.#.$.%.&.              .   ",
"            .   = _ _ =   .         *.=.-.;.>.,.'.).!.~.{.].^.              .   ",
"            .   ) ! ! )   .       /.(._.:.<.[.}.|.1.2.3.4.5.6.              .   ",
"            .   7.- - 7.  .     8.9.0.a.b.c.d.e.f.g.h.i.j.k.                .   ",
"            .   $ l.l.$   .   m.n.o.p.q.r.s.t.u.v.w.x.y.z..                 .   ",
"                @ = = @       A.B.C.D.E.F.G.H.I.J.K.L.M.N.O.                    ",
"                + + + +     P.Q.R.S.T.U.V.W.X.Y.Z.`. +.+++                      ",
"                . . . . . @+#+$+%+&+*+=+-+;+>+,+'+)+!+~+. . . .                 ",
"                        {+]+^+/+(+_+:+<+[+}+|+1+2+3+4+  + d d +                 ",
"                      5+6+7+8+9+0+a+b+c+d+e+f+g+h+i+j+  @ 7.7.@                 ",
"  .                 k+l+m+n+o+p+q+r+s+t+u+v+w+x+y+z+A+  $ B+B+$   .             ",
"  .               A+C+D+E+F+G+H+I+J+K+L+M+N+O+P+Q+R+.   7.- - 7.  .             ",
"  .                 S+T+U+V+W+X+Y+Z+`+ @.@+@@@#@$@  .   ) ! ! )   .             ",
"  .               %@&@*@=@-@;@>@,@'@)@!@~@{@]@^@    .   = /@/@=   .             ",
"  .           (@_@:@<@[@}@|@1@2@3@4@5@6@7@8@9@      .   e 0@0@e   .             ",
"            a@b@c@d@e@f@g@h@i@j@k@l@m@n@o@p@            + @ @ +                 ",
"          q@r@s@t@u@v@w@x@y@z@A@B@C@D@E@F@        . .     . .                   ",
"        G@H@I@J@K@L@M@N@O@P@Q@R@S@T@U@                    . .                   ",
"      V@W@X@Y@Z@`@ #.#+#@###$#%#&#*#            =#3 3 =#                        ",
"      -#;#>#,#'#)#!#~#{#]#^#/#(#_#:#        .   3 <#<#3   .                 .   ",
"      [#}#|#1#2#3#4#5#6#7#8#9#0#a#          .   = b#b#=   .                 .   ",
"        c#d#e#f#g#h#i#j#k#l#m#n#            .   ) ! ! )   .                 .   ",
"          o#p#q#r#s#t#u#v#w#x#              .   = b#b#=   .                 .   ",
"            y#z#A#B#C#D#E#F#G#              .   H#I#I#H#  . .               .   ",
"              ^.J#K#L#M#N#O#                    =#$ $ =#                        ",
"                  P#Q#R#S#T#e d                   + +   d e e d                 ",
"  .             . . U#V#W#<#<#3   .             . . . . 3 <#<#3   .             ",
"  .                 .   = _ _ =   .                 .   = _ _ =   .             "};
