/* XPM */
static char * exit_xpm[] = {
"40 40 219 2",
"  	c #80D010",
". 	c #7FD110",
"+ 	c #7ACA0F",
"@ 	c #74C00E",
"# 	c #75C00E",
"$ 	c #76C00E",
"% 	c #7CCA0F",
"& 	c #7A7605",
"* 	c #910000",
"= 	c #9A969B",
"- 	c #800A0B",
"; 	c #000000",
"> 	c #797705",
", 	c #82CE10",
"' 	c #7FCF10",
") 	c #6A7104",
"! 	c #BB0000",
"~ 	c #C00000",
"{ 	c #BF0000",
"] 	c #C6868A",
"^ 	c #C20809",
"/ 	c #87C810",
"( 	c #94BD0F",
"_ 	c #88C910",
": 	c #7FCE10",
"< 	c #5B6A04",
"[ 	c #C50000",
"} 	c #AF0000",
"| 	c #B00000",
"1 	c #7E3638",
"2 	c #A51516",
"3 	c #626004",
"4 	c #A99B0E",
"5 	c #AB9D0E",
"6 	c #92BF0F",
"7 	c #6F7805",
"8 	c #C30000",
"9 	c #963D3F",
"0 	c #8A6367",
"a 	c #AB0000",
"b 	c #8E0000",
"c 	c #C1B4B3",
"d 	c #695656",
"e 	c #854804",
"f 	c #B37D0C",
"g 	c #96BB0F",
"h 	c #7ECD10",
"i 	c #727D06",
"j 	c #B90000",
"k 	c #765F58",
"l 	c #B9978C",
"m 	c #970000",
"n 	c #A10001",
"o 	c #A34500",
"p 	c #8F1D00",
"q 	c #8B4804",
"r 	c #97B40F",
"s 	c #5C7205",
"t 	c #B40000",
"u 	c #981800",
"v 	c #8E2B00",
"w 	c #AC0000",
"x 	c #B10000",
"y 	c #A30000",
"z 	c #656604",
"A 	c #503D01",
"B 	c #CE0000",
"C 	c #AE0000",
"D 	c #B20000",
"E 	c #523901",
"F 	c #CE0101",
"G 	c #9C0000",
"H 	c #B10101",
"I 	c #503C01",
"J 	c #A09CA2",
"K 	c #835255",
"L 	c #9D0000",
"M 	c #A3A0A6",
"N 	c #854C4F",
"O 	c #B70000",
"P 	c #C27954",
"Q 	c #713E29",
"R 	c #900000",
"S 	c #C77B56",
"T 	c #703926",
"U 	c #810900",
"V 	c #A50200",
"W 	c #800900",
"X 	c #A90200",
"Y 	c #C80000",
"Z 	c #886C70",
"` 	c #963739",
" .	c #A90000",
"..	c #896E73",
"+.	c #9A3234",
"@.	c #B50000",
"#.	c #C29C90",
"$.	c #69524B",
"%.	c #8D0000",
"&.	c #C79F93",
"*.	c #684B45",
"=.	c #CA0000",
"-.	c #892C00",
";.	c #9A1200",
">.	c #892D00",
",.	c #9E1000",
"'.	c #AD0000",
").	c #4F3E01",
"!.	c #CD0000",
"~.	c #7F2B2D",
"{.	c #A31213",
"].	c #7E2C2E",
"^.	c #A71011",
"/.	c #513B01",
"(.	c #B60000",
"_.	c #BBB2B3",
":.	c #6B5E5E",
"<.	c #8F0000",
"[.	c #C0B6B6",
"}.	c #6A5757",
"|.	c #523701",
"1.	c #4D8006",
"2.	c #65A70A",
"3.	c #7AC70F",
"4.	c #C20001",
"5.	c #A54700",
"6.	c #8A2200",
"7.	c #A00001",
"8.	c #A74900",
"9.	c #8C1F00",
"0.	c #533501",
"a.	c #071300",
"b.	c #091600",
"c.	c #3A6203",
"d.	c #70B70D",
"e.	c #A00000",
"f.	c #375E03",
"g.	c #533601",
"h.	c #213B01",
"i.	c #513901",
"j.	c #244101",
"k.	c #CF0101",
"l.	c #AA0000",
"m.	c #3F6B04",
"n.	c #AEAFB4",
"o.	c #775C5F",
"p.	c #960000",
"q.	c #B2B2B8",
"r.	c #775558",
"s.	c #518706",
"t.	c #BA0000",
"u.	c #BB6428",
"v.	c #793210",
"w.	c #940000",
"x.	c #C06629",
"y.	c #792E0E",
"z.	c #62A10A",
"A.	c #CF0000",
"B.	c #8B0000",
"C.	c #8A0000",
"D.	c #5D9909",
"E.	c #6FB80D",
"F.	c #233E01",
"G.	c #427104",
"H.	c #5D9A09",
"I.	c #6BAF0C",
"J.	c #978E93",
"K.	c #8A4A4D",
"L.	c #A20000",
"M.	c #9A9196",
"N.	c #8D4447",
"O.	c #0A1800",
"P.	c #6EB40C",
"Q.	c #264201",
"R.	c #040C00",
"S.	c #C3866C",
"T.	c #6D4536",
"U.	c #C8896E",
"V.	c #6C4032",
"W.	c #020600",
"X.	c #030800",
"Y.	c #050F00",
"Z.	c #396003",
"`.	c #385F03",
" +	c #315402",
".+	c #152801",
"++	c #801700",
"@+	c #A20700",
"#+	c #7F1800",
"$+	c #A60600",
"%+	c #3F6A04",
"&+	c #433801",
"*+	c #930000",
"=+	c #950000",
"-+	c #A10000",
";+	c #433701",
">+	c #203A01",
",+	c #254202",
"'+	c #040D00",
")+	c #050B00",
"!+	c #070700",
"~+	c #060B00",
"{+	c #65A60A",
"]+	c #233F01",
"^+	c #0D1C00",
"/+	c #0B1800",
"(+	c #0C1100",
"_+	c #0E0800",
":+	c #0C1200",
"<+	c #0A1700",
"[+	c #0A1900",
"}+	c #102100",
"|+	c #132501",
"1+	c #122501",
"2+	c #182000",
"3+	c #181000",
"4+	c #121900",
"5+	c #1C3301",
"6+	c #579208",
"                . . . . + @ # # # # # $ # # # # # @ + . . . . .                 ",
"                      % & * * * * = - ; - = * * * * > % , , , ,                 ",
"                    ' ) ! ~ { { ~ ] ^ ; ^ ] ~ { { ~ ! ) / ( ( _                 ",
"  .               : < [ } | | } 1 2 ~ ; ~ 2 1 } | | } [ 3 4 5 6   .             ",
"  .             % 7 8 9 0 a | b c d ~ ; ~ d c b | a 0 9 8 e f g   .             ",
"  .           h i j | k l m | n o p ~ ; ~ p o n | m l k | j q r   .             ",
"  .           s { t } u v w | x y | ~ ; ~ | y x | w v u } t { z   .             ",
"  .           A B } | } C | | | | D ~ ; ~ D | | | | C } | } B E   .             ",
"              A F G w | | | | H G } ~ ; ~ } G H | | | | w G F I                 ",
"              A ~ J K } | | | L M N ~ ; ~ N M L | | | } K J ~ A                 ",
"              A O P Q } | | | R S T ~ ; ~ T S R | | | } Q P O A                 ",
"              A B U V | | | | | W X ~ ; ~ X W | | | | | V U B A                 ",
"            . A B | | | | | | | x D ~ ; ~ D x | | | | | | | B A             .   ",
"            . A B } | | | | | | | D ~ ; ~ D | | | | | | | } B A             .   ",
"            . A B a } | | | | | w x ~ ; ~ x w | | | | | } a B A             .   ",
"            . A Y Z ` | | | |  ...+.~ ; ~ +... .| | | | ` Z Y A             .   ",
"            . A @.#.$.} | | | %.&.*.~ ; ~ *.&.%.| | | } $.#.@.A             .   ",
"              A =.-.;.| | | | a >.,.~ ; ~ ,.>.a | | | | ;.-.=.A                 ",
"              A B '.} | | | | | C D ~ ; ~ D C | | | | | } '.B A                 ",
"              A B } | | | | | | | D ~ ; ~ D | | | | | | | } B ).                ",
"              A B | | | | | | | x D ~ ; ~ D x | | | | | | | B A                 ",
"              A !.~.{.| | | | | ].^.~ ; ~ ^.].| | | | | {.~.!./.                ",
"  .           A (._.:.} | | | <.[.}.~ ; ~ }.[.<.| | | } :._.(.|.1.2.3.          ",
"  .           A 4.5.6.} | | | 7.8.9.~ ; ~ 9.8.7.| | | } 6.5.4.0.a.a.b.a.c.d.    ",
"  .           A B e.'.| | | | x e.| ~ ; ~ | e.x | | | | '.e.B 0.a.a.a.a.a.f.    ",
"  .           A B } | | | | | | | D ~ ; ~ D | | | | | | | } B g.a.a.a.a.a.h.    ",
"  .           A B | | | | | | | x D ~ ; ~ D x | | | | | | | B i.a.a.a.a.a.j.    ",
"              A k.<.l.| | | | H b '.~ ; ~ '.b H | | | | l.<.k.A a.a.a.a.a.m.    ",
"              A ! n.o.} | | | p.q.r.~ ; ~ r.q.p.| | | } o.n.! A a.a.a.a.a.s.    ",
"              A t.u.v.} | | | w.x.y.~ ; ~ y.x.w.| | | } v.u.t.A a.a.a.a.a.z.    ",
"              A A.B. .| | | | x C.'.~ ; ~ '.C.x | | | |  .B.A.A a.a.a.a.a.D.    ",
"            . A B | | | | | | | x D ~ ; ~ D x | | | | | | | B A a.a.a.a.a.d..   ",
"            E.A B } | | | | | | | D ~ ; ~ D | | | | | | | } B A a.a.a.a.F.  .   ",
"            G.A B y C | | | | x y | ~ ; ~ | y x | | | | C y B A a.a.a.a.H.  .   ",
"          I.a.A 8 J.K.} | | | L.M.N.~ ; ~ N.M.L.| | | } K.J.8 A a.a.a.O.    .   ",
"        P.Q.R.A (.S.T.} | | | b U.V.~ ; ~ V.U.b | | | } T.S.(.A W.X.Y.Z.    .   ",
"        `. +.+A !.++@+| | | | } #+$+~ ; ~ $+#+} | | | | @+++!.A a.a.c.d.        ",
"        %+a.a.&+w *+*+*+*+*+*+*+w.=+-+; -+=+w.*+*+*+*+*+*+*+w ;+a.a.>+          ",
"  .     ,+a.a.'+R.R.R.R.)+!+!+)+R.R.R.R.R.R.R.R.R.R.R.R.)+!+!+~+a.b.z.          ",
"  .     {+]+^+/+/+/+O.a.(+_+_+:+<+[+}+|+|+|+|+|+|+|+1+|+2+3+_+4+5+6+            "};
