/* XPM */
static char *exit1714676597[] = {
/* columns rows colors chars-per-pixel */
"40 40 35 1 ",
"  c black",
". c #222034",
"X c #45283C",
"o c #663931",
"O c #8F563B",
"+ c #DF7126",
"@ c #D9A066",
"# c #EEC39A",
"$ c #FBF236",
"% c #99E550",
"& c #6ABE30",
"* c #37946E",
"= c #4B692F",
"- c #524B24",
"; c #323C39",
": c #3F3F74",
"> c #306082",
", c #5B6EE1",
"< c #639BFF",
"1 c #5FCDE4",
"2 c #CBDBFC",
"3 c white",
"4 c #9BADB7",
"5 c #847E87",
"6 c #696A6A",
"7 c #595652",
"8 c #76428A",
"9 c #AC3232",
"0 c #D95763",
"q c #D77BBA",
"w c #8F974A",
"e c #8A6F30",
"r c #7FA45D",
"t c #4F6937",
"y c #566D41",
/* pixels */
"=t===tyt==tt=tyt=tt=--t===tt==tttttt====",
"===t==tt==tt==tt=ty-e-e==t====ttttyt==t=",
"==tyt=====yy======e-e-eetyt=======tt=tyt",
"==tyt=====tt===ttee-e-ee-yttyt=======tyt",
"===t======tt===t-ee-e-ee--=tyt==tt===tyt",
"t=====tt==tt===ee777e-ee-eetyt==tyt==ttt",
"t====tyt==tt==eee677e--eeeeeyt==ttt=====",
"t=tyttyt==yy=eeee67-e-eeeee-e===========",
"t=tyttyt==ttee-ee7e-e-eeee-ee-tt=====ttt",
"t=tt==tt===eeeee-ee-e-ee-eteeeett=tt=tyt",
"==========ee-eeee-e-e-ee-eeeeeee=tyt=tyt",
"====tt===-ey-eeeeee-e--eyeee-eee-tyt=tyt",
"ttt=yytte-eee--eeee-e--eeeee-eeeeett==t=",
"tyt=tttee--eee-eeee-e-eeeeteeee-ee-====t",
"tyt===eeeeeeeeee-ee-;-eee-eeee-eeeee===t",
"tyt==eeeeee-yeeeee-wwwey-eeey-eee-ee=t=t",
"=t==teee--ee-eeee-w@@@@w-eee--eeeeeeet=t",
"t===yeeee-eee-ee-w@@0@@@wee--eee-eeett=t",
"t===teyeetteee-ew@@o-;e@@e-eeee-eeeeet=t",
"t====e-eeeetee-w@@w;-;t@@@wteeeeeeee-==t",
"t====-e-eeeee-w@@@@;-;y@@@@weeeee-tee==t",
"====teeeeee--w@@@@@wyy@@@@@@w-eeeteeet=t",
"ttt=teeee-eew@@@@@@@@@@@@@@@@eteeeee-===",
"tyt==eeee--w@@@@@@w@@@@@@@@@@@w-eeee-tt=",
"ttt==e-ee-eOOOOOOOeOOOOOOOOeOOOoeeeeetyt",
"=====eee-e---ey---e-------=e---eet-e-tyt",
"=====eet--;;;--;;---;;--;;-7-;;----eetyt",
"=t===-7eeeeeeeeeeeee767777776677767--ttt",
"tyt===yeeyeeeeeeeeee67;.....;566766-====",
"tyt===teeeeeeeeeeeee6;.......767766ttt=t",
"ttt===teeeeeeeeeeeee6........;66766tyt=t",
"===t==t7---;----;--77........;67;67ttt=t",
"t=tyt=t6;;;;;;-;;;;77....;...;67766====t",
"t=tyt=t6-;o667O677776...;5;..;67766t===t",
"t=tt=ty6-;;77:7:7:776;;;525.;;66766y==t=",
"=====ty6-;7667O6yy777;;;234;;;66767t=tyt",
"tyt==tyt-;77X757X76-===63227=====ttt=tyt",
"tyt===tt-;7Xoo7Xoo7===t42026==tt==tt=tyt",
"tyt=tt==-;7;;;7;;;7=t=t50O@6==yyt=tt=ttt",
"tyt=tyt=-=;;;;;;;;-ty==t--tt==yyttyt===="
};
