/* XPM */
static char *floor1714677240[] = {
/* columns rows colors chars-per-pixel */
"40 40 35 1 ",
"  c black",
". c #222034",
"X c #45283C",
"o c #663931",
"O c #8F563B",
"+ c #DF7126",
"@ c #D9A066",
"# c #EEC39A",
"$ c #FBF236",
"% c #99E550",
"& c #6ABE30",
"* c #37946E",
"= c #4B692F",
"- c #524B24",
"; c #323C39",
": c #3F3F74",
"> c #306082",
", c #5B6EE1",
"< c #639BFF",
"1 c #5FCDE4",
"2 c #CBDBFC",
"3 c white",
"4 c #9BADB7",
"5 c #847E87",
"6 c #696A6A",
"7 c #595652",
"8 c #76428A",
"9 c #AC3232",
"0 c #D95763",
"q c #D77BBA",
"w c #8F974A",
"e c #8A6F30",
"r c #7FA45D",
"t c #4F6937",
"y c #566D41",
/* pixels */
"=t===tyt==tt=tyt=tt==tt===tt==tttttt====",
"===t==tt==tt==tt=tt=tyt==t====ttttyt==t=",
"==tyt=====yy========tyt=tyt=======tt=tyt",
"==tyt=====tt===tyt==tyt=tyttyt=======tyt",
"===t======tt===tyt===t==tt=tyt==tt===tyt",
"t=====tt==tt===ttt=tt======tyt==tyt==ttt",
"t====tyt==tt=======yy======tyt==ttt=====",
"t=tyttyt==yy===tyt=yy===tyt=============",
"t=tyttyt==tt===tyt=tt===tyt===tt=====ttt",
"t=tt==tt====tt=tyt======tt===tttt=tt=tyt",
"===========tyt=tyt===============tyt=tyt",
"====tt=====tyt======tyt=====tt===tyt=tyt",
"ttt=yytttt=ttt======tyt=tt=tyt====tt==t=",
"tyt=ttttyt=======tt==tt=tyttyt==tt=====t",
"tyt====tyt=======tyt====tyttyt==tt=====t",
"tyt==t==t====tt==tyt====tyt=t===tytttt=t",
"=t==tyt===t==tyt=tt==tt=ttt=====tyttyt=t",
"t===yyt==ttt=ttt====tyt=========tt=tyt=t",
"t===ttt==tyyt=======tyt=====tt=====tyt=t",
"t=========tt=tt==ttt=t===tttyt=====tt==t",
"t=======tt===tyt=tyt====tyttyt==t======t",
"====tytttt===ttt=tt=ttt=ttt=tt==tttttt=t",
"ttt=tyttyy==========tyt=========tyt=====",
"tyt=====tt===tt=====ttt=========tyt==tt=",
"ttt==========tyt=tt=============tt===tyt",
"======tt=ttt=ttt======ttt===tt==t====tyt",
"=====tyt==yyt=t====tt=tyt==tyt=======tyt",
"=t===tyt==tt=======yy=tyt===tt=======ttt",
"tyt===tt=====ttt===yy=tyt=======ttt=====",
"tyt===tt=ttt==tt===tt==t==ttt===tt=ttt=t",
"ttt===tt==yytttt=====t====tyt===t==tyt=t",
"===t===t==yyttyt==t=tyt====t=======ttt=t",
"t=tyt=====ttttyt=tyttyt=======yy=======t",
"t=tyt=tt=====tyt=tyt=t====tt==yytttt===t",
"t=tt=tyt======tt=tyt===t==yyt=yyttyy==t=",
"=====tyt=========tyt==tyttyyt=ttttyt=tyt",
"tyt==tyt===ttt========tyt=tyt====tyt=tyt",
"tyt===tt===tyt=ttt====tyt=tt==tt==tt=tyt",
"tyt=tt=====tyyttyt=tt=ttt=tt==yyt=tt=ttt",
"tyt=tyt====tyyttyt=yy=====yt==yyttyt===="
};
