/* XPM */
static char *_33baa0d31584371d125384af992e5cbB235uYufIi1YDfnL[] = {
/* columns rows colors chars-per-pixel */
"40 40 28 1 ",
"  c #BA7C0D",
". c #7FD110",
"X c #B6870D",
"o c #B8810D",
"O c #B48B0D",
"+ c #B38D0D",
"@ c #AE970E",
"# c #AD9A0E",
"$ c #AB9D0E",
"% c #99B70F",
"& c #96BB0F",
"* c #92BF0F",
"= c #94BD0F",
"- c #98B80F",
"; c #A6A50E",
": c #A9A00E",
"> c #A2AB0E",
", c #A4A80E",
"< c #A0AE0F",
"1 c #8EC30F",
"2 c #8DC40F",
"3 c #91C00F",
"4 c #8BC610",
"5 c #86CB10",
"6 c #82CE10",
"7 c #84CD10",
"8 c #88C910",
"9 c #80D010",
/* pixels */
"99999999........99999999........99999999",
"9999999999996666999999999999666699999999",
"9999999999998==89999999999998==899999999",
"9.99999999.9*$$*9.99999999.9*$$*9.999999",
"9.99999999.9&oo&9.99999999.9&oo&9.999999",
"9.99999999.9%  %9.99999999.9%  %9.999999",
"9.99999999.9&OO&9.99999999.9&OO&9.999999",
"9.99999999.91,,19.99999999.91,,19.999999",
"9999999999997227999999999999722799999999",
"999999999..99999999999999..9999999999999",
"999999999..99..9999999999..99..999999999",
"9999999974479999999999997447999999999999",
"999999.91>>19.99999999.91>>19.99999999.9",
"999999.9&OO&9.99999999.9&OO&9.99999999.9",
"999999.9%  %9.99999999.9%  %9.99999999.9",
"999999.9-oo-9.99999999.9-oo-9.99999999.9",
"999999.9*##*9.99999999.9*##*9.99999999.9",
"999999998&&89999999999998&&8999999999999",
"9999999966669999999999996666999999999999",
"99999999........99999999........99999999",
"9999999999996776999999999999677699999999",
"9999999999998--89999999999998--899999999",
"9.99999999.9*@@*9.99999999.9*@@*9.999999",
"9.99999999.9-oo-9.99999999.9-oo-9.999999",
"9.99999999.9%  %9.99999999.9%  %9.999999",
"9.99999999.9&++&9.99999999.9&++&9.999999",
"9.99999999.92<<29.99999999.92<<29.999999",
"9999999999996886999999999999688699999999",
"999999999..99..9999999999..99..999999999",
"9999999999999..99999999999999..999999999",
"9999999951159999999999995115999999999999",
"999999.91;;19.99999999.91;;19.99999999.9",
"999999.9&XX&9.99999999.9&XX&9.99999999.9",
"999999.9%  %9.99999999.9%  %9.99999999.9",
"999999.9&XX&9.99999999.9&XX&9.99999999.9",
"999999.93::39..9999999.93::39..9999999.9",
"999999995**59999999999995**5999999999999",
"9999999996697227999999999669722799999999",
"9.999999....1;;19.999999....1;;19.999999",
"9.99999999.9&OO&9.99999999.9&OO&9.999999"
};
