/* XPM */
static char *df1259610a4b4ce2fda04460722c017eUjo8HkJPTpWATwLD[] = {
/* columns rows colors chars-per-pixel */
"40 40 218 2 ",
"   c #060306",
".  c #04010B",
"X  c #0C010E",
"o  c #190007",
"O  c #13020B",
"+  c #001D00",
"@  c #050011",
"#  c #0C0213",
"$  c #000119",
"%  c #1B0314",
"&  c #031A14",
"*  c #26020F",
"=  c #370304",
"-  c #230413",
";  c #2B0114",
":  c #390518",
">  c #251F1D",
",  c #39131C",
"<  c #0B2C0F",
"1  c #0E391A",
"2  c #133918",
"3  c #3D1223",
"4  c #31393A",
"5  c #4C0817",
"6  c #540A17",
"7  c #47121B",
"8  c #5B141B",
"9  c #6E0E00",
"0  c #661C1B",
"q  c #5D281C",
"w  c #66221D",
"e  c #74201C",
"r  c #4D1926",
"t  c #581524",
"y  c #681420",
"u  c #5B2629",
"i  c #642124",
"p  c #682628",
"a  c #762823",
"s  c #683A2B",
"d  c #78362C",
"f  c #6A3A3B",
"g  c #154619",
"h  c #195515",
"j  c #214B14",
"k  c #23581C",
"l  c #007008",
"z  c #327616",
"x  c #1B5520",
"c  c #275639",
"v  c #684431",
"b  c #404C41",
"n  c #6C6967",
"m  c #6E6C6B",
"M  c #726C67",
"N  c #736E6B",
"B  c #75716E",
"V  c #78736E",
"C  c #6D6474",
"Z  c #726F74",
"A  c #767472",
"S  c #797572",
"D  c #7C7976",
"F  c #787479",
"G  c #7C7B7A",
"H  c #85181C",
"J  c #AF1A1B",
"K  c #88281C",
"L  c #982E19",
"P  c #80341D",
"I  c #98361E",
"U  c #A42E1D",
"Y  c #821A23",
"T  c #872A21",
"R  c #922821",
"E  c #863827",
"W  c #933E27",
"Q  c #983830",
"!  c #A13620",
"~  c #9C501B",
"^  c #8E4127",
"/  c #944428",
"(  c #894331",
")  c #964E32",
"_  c #9F5837",
"`  c #A34B27",
"'  c #B8472C",
"]  c #A7532A",
"[  c #B95B28",
"{  c #A75935",
"}  c #9A653A",
"|  c #BC642B",
" . c #A9623C",
".. c #BD6330",
"X. c #B2653D",
"o. c #D25830",
"O. c #E25C38",
"+. c #CA622A",
"@. c #D77425",
"#. c #C56737",
"$. c #C77237",
"%. c #D27630",
"&. c #EC703C",
"*. c #AB5B53",
"=. c #98694D",
"-. c #896752",
";. c #A96743",
":. c #AF7149",
">. c #BD7F5D",
",. c #957766",
"<. c #817D7A",
"1. c #AA7A64",
"2. c #B57961",
"3. c #DA6543",
"4. c #C5774B",
"5. c #E47947",
"6. c #EA7C4C",
"7. c #518F1C",
"8. c #5D951D",
"9. c #68941C",
"0. c #70A11F",
"q. c #4B8828",
"w. c #588F26",
"e. c #5B9B22",
"r. c #5A973E",
"t. c #659B24",
"y. c #699D26",
"u. c #659B29",
"i. c #719C2E",
"p. c #6BA124",
"a. c #6CA128",
"s. c #77A62E",
"d. c #6D9344",
"f. c #7CAA43",
"g. c #7D8176",
"h. c #BB9849",
"j. c #83817D",
"k. c #89817F",
"l. c #BC9369",
"z. c #D58F51",
"x. c #E38240",
"c. c #F88A42",
"v. c #EC8454",
"b. c #F88A59",
"n. c #F69A57",
"m. c #C89266",
"M. c #C69E73",
"N. c #F08C71",
"B. c #C9A176",
"V. c #FEAD70",
"C. c #FEB87D",
"Z. c #96C353",
"A. c #B7D473",
"S. c #C4D678",
"D. c #7D8485",
"F. c #838383",
"G. c #8A8783",
"H. c #8C8A86",
"J. c #868788",
"K. c #8B8A8A",
"L. c #948B86",
"P. c #8E908F",
"I. c #93948B",
"U. c #8B8D90",
"Y. c #8E9495",
"T. c #949393",
"R. c #999A98",
"E. c #9D9D9C",
"W. c #B4978A",
"Q. c #A19C99",
"!. c #A5A19E",
"~. c #979EA0",
"^. c #A19FA1",
"/. c #96A2AD",
"(. c #A4A4A4",
"). c #A9A7A5",
"_. c #A6ABAE",
"`. c #ABACAB",
"'. c #B2AFAC",
"]. c #B3B1AE",
"[. c #BEB6A9",
"{. c #AEB2B2",
"}. c #AEB4B8",
"|. c #B5B5B3",
" X c #B9B6B4",
".X c #B6B8B6",
"XX c #BAB9B6",
"oX c #B4B7B9",
"OX c #B6BBBB",
"+X c #BBBBBA",
"@X c #C5A496",
"#X c #E5A380",
"$X c #FFB883",
"%X c #C1BDBC",
"&X c #BDC1BE",
"*X c #FDC789",
"=X c #FFCA9D",
"-X c #FED691",
";X c #D4EB91",
":X c #C1C2BC",
">X c #FFD6A3",
",X c #FEDBA7",
"<X c #FFDCAC",
"1X c #FFDDB0",
"2X c #FFE2B2",
"3X c #BCB4C0",
"4X c #B4BCC3",
"5X c #BBBEC1",
"6X c #B8C2C6",
"7X c #BCC1C5",
"8X c #C1C6C6",
"9X c #DADCC4",
"0X c #EBDECB",
"qX c #DEE0DF",
"wX c #F9EBD0",
"eX c #FBFAEB",
"rX c #FCFDFD",
"tX c #FDFDFE",
/* pixels */
"tXtXtXtXtXtXtXtXtXtXtXtXtXtXtXtXtXtXtXtXtXtXtXtXtXtXtXtXtXtXtXtXtXtXtXtXtXtXtXtX",
"tXtXn m }.`.OXN m OX{.oXA D oX(.+XG k.(.(._.E.E.}.oXD S Z OX7XB N XX{.+XM N _.(.",
"tXtXS S XX+XXXS S +X+X+XD D +X&X8XD.} W.|.6X}.E.8X&XG S S +X+XS S +XXX+XS S +XXX",
"tXtXV V  XXX+XS D XX+X+XG <.:X+X+XR.% t ..$.i Y.,.+XF.G A +XXXS S  XXXXXV S  XXX",
"tXtX X XB N B XXXXS B S +XXXB N d [ ] ^ ` ` E - 7 F.&X+X'.B B XXXXS M N  XXXB M ",
"tXtX|.|.S N V XXXXS B A XXXXL +.| / W #.{ W E a % F.+XXX|.B S XXXXB B S  X XV N ",
"tXtXm N  X X XN N XXXXXXB S 6X6XW ] ` E P $.E E W z.A B m +XXXN M XX+X XN M XXXX",
"tXtXN N XX X XN N XXXX XB A _./ a a i 5 ] ` 7 a ] 8 G A m XXXXV N +XXX XB N XXXX",
"tXtXB V  X X XV S XX X XD S 5 : : a 5.8 / ; C.: ^ ; K.G N XX XS S +XXX XV V XX X",
"tXtX|. XV N V  X XS B B XXXXB S : c.-X5 o -X*Xn.i   +XXX XB A  XXXN N N  X XB N ",
"tXtX|.|.B N B  X XV B A XXXXG 5.. q . n.>X$X. : O =X+XXX XS A .XXXS B V  X XS B ",
"tXtX|.|.S S D XXXXD D S XXXXF.$XJ <X+ 1X<XwXl $XJ O.+XXX|.D G XX XG D D XX|.D D ",
"tXtXN N  X X XN B XXXX XB A +X Xv.*XtX<X<X<XtXC.6.@XG A A XXXXB N XXXXXXN N  XXX",
"tXtXB B  X X|.B S XXXX XS S 5X4X4Xv.2X<X2X2X<XQ.6X6XG D m XXXXS S XXXX XV S  XXX",
"tXtX|.|.V N A XXXXB B A XXXXD G G 6XN.<X2X,XN.6XG G 5X+X|.B A XXXXN N B  X XB N ",
"tXtX|.|.B N S XXXXS B S +X+XG G D.OX4 % % H & D.F.F.&X+XE.S A XXXXA B S  XXXS N ",
"tXtX X|.S B S XXOXS A D XX+XG F.F.7 * C.=X$Xi.j b U.+X+XQ.G G  X XD D D XX XS V ",
"tXtXN B XXXXXXB A +XXX+XA G +X+X1 U 6 C.*X$X7.s.x & F.G G XXXXA B +XXXXXB B XXXX",
"tXtXB B XXXX.XB B +XXXOXD G +X4X2 h +.6 0Xw.a.k 0.w.K.J.J.XXXXS S +XXX XV B  XXX",
"tXtX`.'.N B A '.].m A A  X|.F.< g p.` *.- p.y.2 a.s.r. X).D S +X XB B S XX].n M ",
"tXtX X XS B S XXXXS S G +X+X. 7.g y.X x.s t.t.2 ;Xv @ `.T.F.j.XXXXS V D XXXXS N ",
"tXtX|. XS S D XXXXS D G +X5XK.3Xf 8.p.X ' K z @ 1.#XT.F.J.|.{.E.`.k.k.G.XXXXD D ",
"tXtXS S XXXXOXB A +XXXOXD G 7Xb.3.k e.h c L y & 6.2XV.J.T.XXXXS S +XXXXXB B XXXX",
"tXtX<.<.XXXX XB A +X+XOXG G T e 3.* * o o X i # o.0 y |.R.j.K.H.G.'.XX].V S  XXX",
"tXtX).].<.S S  X XV S F |. X7 = - p 6 5 p = @ t ; 6 5 +X(.D G |.|.<.S D  X|.B S ",
"tXtX|.|.S S S XXXXS S G E OXz.%.# u.t.# . j g X O Q $.XXJ.D G XXXXS S D XX+XS V ",
"tXtXN N |. X|.S S T.F.G t ).6.b.2 8.t.u.k q.9.2 n.,X>X<.J.+X+XA A XXXX|.S S  X].",
"tXtXB B |.|. XB S |. X|.F.T 2.&.e.e.u.t.u.t.y.1 O.2X<Xk.F.XXXXS B +XXX XB N  XXX",
"tXtXS D |. X.XD G `.qXtX9XH O &.$ h A.S.A.A.q.> c.V.&.K.F.XXOX<.D XX+XXXS S  XXX",
"tXtX|. XB m N tXtXeXeXF Z C Y /.M.l.r . Y., =.m.f   &X+X XS A XXXXS N B  X XS B ",
"tXtX].|.V m tXeXeXJ.F F F.J.O f B.M.2.# ^., =.B.=.s +X+X{.D D +XXXS B V XXXXk.j.",
"tXtXB M !.tX[.L.K.G (.G.`.(.OX7Xr 3 u 5X+X6Xr r % X <.S A XX.XB N %XXX XD D R.L.",
"tXtXB B (.K.J. X XI.K.J.`.`..X4X' K ; OXOX}.8 R R 6XG D A XXXXV B +XXX XV V R.R.",
"tXtXV S R.J.G |. XG.J.J.{.`.`.` [ 0 O OXOX4X# e ~   J.G A XXXXS S :XXXXXS S  X|.",
"tXtX`.(. X|.|.B A |.`.`.|.|./ ] @.w % E.P.~.; e @.  u +X`.S S XXXXA B N XX XV N ",
"tXtX`.).].|.].V A |.].`.|.oXF.T.K X 5XE.T.Y.7X@ L % +X+X(.S S XXXXS B A XXXXD S ",
"tXtX].'.(.).`.D <. X].(..XOXG %.* X 8XR.K.J.8X. +.-  X+X(.j.j.+XXXG D D XX+XG D ",
"tXtXB A <.<.G  X|.D G G G ,.4.9 w X P.8X7X8XF.# E X.I -.F.+X+XD A +XXXXXV B ].).",
"tXtXS D Q.I.H.+X|.g.Z.f.D.I K e # @ I.+X&XOXY.@ 5 y R ! s OXz d.G :X&X+XS S  X].",
"tXtX<.F.>.m.:.w E 4.;.{ _  . . ._ ;.X.w ;.) ) { ;. .;.;. .X.X.d ;.;./ ( h.,.>.2."
};
