/* XPM */
static char *ef0c7c17b7074585c407d21d3919e1b7fLHvEavlqOStxexG[] = {
/* columns rows colors chars-per-pixel */
"40 40 224 2 ",
"   c #040402",
".  c #090704",
"X  c #0B0906",
"o  c #0E0C0A",
"O  c #130E0B",
"+  c #15110E",
"@  c #1B130E",
"#  c #171411",
"$  c #1B1512",
"%  c #1D1916",
"&  c #221613",
"*  c #221B16",
"=  c #291F17",
"-  c #261D19",
";  c #341D16",
":  c #26211D",
">  c #2B231C",
",  c #33251C",
"<  c #38251B",
"1  c #2D2520",
"2  c #2F2C27",
"3  c #342B24",
"4  c #3A2E24",
"5  c #382F29",
"6  c #383128",
"7  c #3E342C",
"8  c #3D3631",
"9  c #3E3835",
"0  c #582F1D",
"q  c #442E24",
"w  c #4B2922",
"e  c #463729",
"r  c #583426",
"t  c #553B2E",
"y  c #5B3B2B",
"u  c #423A30",
"i  c #4B3D31",
"p  c #533A30",
"a  c #61342B",
"s  c #693D2C",
"d  c #6B3E32",
"f  c #3D412E",
"g  c #494738",
"h  c #544233",
"j  c #5D4335",
"k  c #5D5235",
"l  c #66412F",
"z  c #624333",
"x  c #6C4334",
"c  c #624939",
"v  c #6A4B3A",
"b  c #754333",
"n  c #7A4536",
"m  c #7C4B34",
"M  c #734B3B",
"N  c #7D4C3B",
"B  c #72523C",
"V  c #7C533D",
"C  c #6C633A",
"Z  c #574F49",
"A  c #595B45",
"S  c #6A5041",
"D  c #7C5643",
"F  c #7A5845",
"G  c #586243",
"H  c #7D6048",
"J  c #726D66",
"K  c #86473A",
"L  c #814D3C",
"P  c #84543A",
"I  c #83523C",
"U  c #8C533D",
"Y  c #964E40",
"T  c #865342",
"R  c #8B5543",
"E  c #865942",
"W  c #8C5B44",
"Q  c #895D4B",
"!  c #965446",
"~  c #935C44",
"^  c #9B5C46",
"/  c #945D4A",
"(  c #9A5E4B",
")  c #A35B4C",
"_  c #B35D45",
"`  c #866544",
"'  c #8C634C",
"]  c #9D6346",
"[  c #93654A",
"{  c #94634C",
"}  c #9A644D",
"|  c #9C694F",
" . c #847748",
".. c #8A6450",
"X. c #846C52",
"o. c #9C6452",
"O. c #956853",
"+. c #9B6C53",
"@. c #9A7458",
"#. c #A7694E",
"$. c #A36551",
"%. c #A36A54",
"&. c #AC6B52",
"*. c #AC6C56",
"=. c #A36E58",
"-. c #B26C55",
";. c #AC7557",
":. c #A6755B",
">. c #AB745B",
",. c #A47A5A",
"<. c #AB7A5D",
"1. c #B37355",
"2. c #B77757",
"3. c #B3745B",
"4. c #BA745B",
"5. c #B37B5E",
"6. c #BC7B5D",
"7. c #977762",
"8. c #AF7760",
"9. c #A67D61",
"0. c #AC7C61",
"q. c #BE7760",
"w. c #B47C61",
"e. c #BA7D62",
"r. c #C46C52",
"t. c #C57B5D",
"y. c #C47C62",
"u. c #C97F63",
"i. c #7DAB3B",
"p. c #7A9946",
"a. c #76904C",
"s. c #7FAA44",
"d. c #AE8B31",
"f. c #AC8A36",
"g. c #84B83E",
"h. c #9CBB3D",
"j. c #A5A737",
"k. c #A7A138",
"l. c #9AC23E",
"z. c #868C47",
"x. c #978154",
"c. c #819A58",
"v. c #BD865C",
"b. c #AD9C5A",
"n. c #87B64E",
"m. c #9EBD42",
"M. c #82A256",
"N. c #94A559",
"B. c #8AB052",
"V. c #95BC53",
"C. c #96B458",
"Z. c #A9A248",
"A. c #A6BB55",
"S. c #879B68",
"D. c #8C9C71",
"F. c #A98468",
"G. c #AB856C",
"H. c #B78265",
"J. c #BE8162",
"K. c #B3856A",
"L. c #B5886D",
"P. c #BB8A6B",
"I. c #B78E72",
"U. c #B79174",
"Y. c #8AA664",
"T. c #96BA69",
"R. c #9AAE77",
"E. c #B6BE67",
"W. c #A2BA7B",
"Q. c #C1835E",
"!. c #C4885D",
"~. c #C38463",
"^. c #CB8366",
"/. c #C58962",
"(. c #C98D64",
"). c #C68969",
"_. c #CD8C6A",
"`. c #D78869",
"'. c #C99766",
"]. c #CC926C",
"[. c #D6956C",
"{. c #D4966D",
"}. c #D88F75",
"|. c #CC9674",
" X c #D79776",
".X c #DC9C75",
"XX c #D29B78",
"oX c #E28B6E",
"OX c #E49C7A",
"+X c #C4A668",
"@X c #CCA47B",
"#X c #DFA478",
"$X c #DCA37D",
"%X c #C5BB71",
"&X c #E1A376",
"*X c #E2A57C",
"=X c #E3A97C",
"-X c #92CE42",
";X c #99C348",
":X c #94CE49",
">X c #95CE4A",
",X c #94C259",
"<X c #9BCA59",
"1X c #96D050",
"2X c #AAC65D",
"3X c #A3CD5C",
"4X c #9BC962",
"5X c #9EC56C",
"6X c #A9C969",
"7X c #B2C666",
"8X c #A6C57D",
"9X c #C8C57D",
"0X c #DAA483",
"qX c #E5AA82",
"wX c #E2AA87",
"eX c #EBAC84",
"rX c #ECAE89",
"tX c #EAB587",
"yX c #EEB28C",
"uX c #F2B58D",
"iX c #F1B68F",
"pX c #F3B88F",
"aX c #AECB89",
"sX c #D3C387",
/* pixels */
"-X-X-X-X-X-X-X-X-X-X:X-X:X:XT.Y.D.T.aXaXg 9 5 9 J S.8X,X:X-X-X-X-X-X-X-X-X-X-X-X",
"-X-X-X-X-X-X-X-X-X:X-X-XT.G 2 : + * g 8 $ 9 8 1 3 > * > A 5X-X-X-X-X-X-X-X-X-X-X",
"-X-X-X-X-X-X-X-X-X:X5Xa.5 > $ + X $ + X @ * $ 1 * & & $ > N.h.;X-X:X-X-X-X-X-X-X",
"-X-X-X-X-X-X-X-X:Xn.% > $ O .     %   . + + $ : $ * 5 5 3 C k.h.-X:X-X-X-X-X-X-X",
"-X-X-X-X-X-X-X:X:XA $ % .         o . $ o O % * * * > - > - e N.:X-X-X-X-X-X-X-X",
"-X-X-X-X-X-X-X:XS.* % + .         . . X   . . @ * - 5 7 > > 3 g 6X:X-X-X-X:X-X-X",
"-X-X-X-X-X-X-Xc.- $ 1 o     @ t v v t e t j t q , - 3 5 > > > 7 M.S.:X-X-X-X-X-X",
"-X-X-X-X-X-XT.f $ $ O . O t ..+.:.+.+.O.+.+.+.O.{ V y q & $ o 9 A D.:X:X-X-X-X-X",
"-X-X-X-X-X-XR.5 O + X > F @.:.;.5.5.>.>.5.3.3.5.5.5.;.E q $ # > g 8X:X:X-X-X-X-X",
"-X-X-X-X-X-XW.Z O + = H 9.0.w.5.w.w.w.w.e.6.e.J.~.~.J.J.v = * > g 8X:X:X:X-X-X-X",
"-X-X-X-X-X-XY.5 # @ v 9.0.5.5.w.w.w.5.5.e.e.J.~.~.~.~.).O.q , 3 , ,X-X-X:X-X-X-X",
"-X-X-X-X-X-XW.- $ < @.H.5.5.5.5.w.w.5.5.e.e.~.~.~.Q.~._.H.B 4 5 > B.-X-X:X-X-X-X",
"-X-X-X-X-X:X4X* * e @.w.5.5.5.5.e.e.5.e.e.e.J.~.~.Q.~.].].[ e 6 3 M.-X:X:X-X-X-X",
"-X-X-X-X-X:X5X> = h 9.w.5.w.w.w.e.e.e.e.e.e.J.~.6.~./.]. XK.h i 4 s.-X:X:X-X-X-X",
"-X-X-X-X-X-X,X, > F F.H.w.w.w.w.w.e.e.e.e.5.=.O.{ { <.|..X$X7.i u g.-X:X-X-X-X-X",
"-X-X-X-X-X-X<X6 j G.G.' z j t M { >.5.e.>.P x y y M D :.XX$X0XS i i.-X-X-X-X-X-X",
"-X-X-X-X-X-X<Xu 7.G.' z v D M M N } %.5.;.| +.} :.w.P.K.P.$XqX@.i p.-X-X-X-X-X-X",
"-X-X-X-X-X-X4X4 F.F.' ..O.+.+.O.W W } 5.~.;.~ W =.P.XXwX0X$XqXG.h c.:X-X-X-X-X-X",
"-X-X-X-X-X-X<X4 G.9.@.Q z z y l m m | 6._.] s t , F :.).$X*XqXU.c >.@X3X:X-X-X-X",
"-X-X-X-X-XV.x.e U.9.` l z p 4 v r b | 6.~.~ M M M } 5.1.!. X=X|.:.OX`.E.:X-X-X-X",
"-X-X-X-X-Xz.R F U.,.| W E T N m L W %.6.~.2.U U ^ &.1.6._.{.qXXX0Xt.`.+X:X-X-X-X",
"-X-X-X-X-X .o.O.I.<.,.:.+./ ~ { } / %.6.^.u.-.&.#.&.6._.{..XrXwX X`.oX'.:X-X-X-X",
"-X-X-X-X-X` %.{ I.<.<.<.>.>.%.%.} } *.4.u.^.4.&.*.3.t._..X*XrXrXq._ r.+X:X-X-X-X",
"-X-X-X-X:Xz.^ U L.0.0.w.8.>.%./ U >.3.6.^.u.-.&.3.3.t._..XqXyXrX`._ r.%X-X-X-X-X",
"-X-X-X-X-XV./ ~ L.0.8.>.>.%.R b %.%.*.4.`.^.4.K ^ 1.y._.OXeXuXuX~.t.OX7X-X-X-X-X",
"-X-X-X-X-X:X@.=.L.0.=.%.$.~ b N T R ] 4.}.}.y.#.b ^ 6.{.*XuXuXuX.XeX$X:X-X-X-X-X",
"-X-X-X-X-X-XN.%.L.:.} | } b n L x r N 3.q.4.y.4.} b 1.{.qXuXuXuX{.`.%X-X-X-X-X-X",
"-X-X-X-X-X-XV.:.K.@.[ { E a x x y r s n N L ^ $.{ s ~ (.=XuXuXpX`.=X<X-X-X-X-X-X",
"-X-X-X:X-X-X:XX.F.+.[ ~ M ; < q < r N T T R %.o.D 0 P Q.#XeXuXuXE.3X-X-X-X-X-X-X",
"-X-X-X:X-X-X:X:XC.+.} } W w ; & w a b U &.3.e.x w s P Q.&XrXuXsX:X-X-X-X-X-X-X-X",
"-X-X-X-X-X-X-X-X,XO.{ } { I M w a / K.P.0XXX%.U 3.m ~ /.&XyXpXsX:X-X-X-X-X-X-X-X",
"-X-X-X-X-X-X:X-X;X@.[ { | I I N d L ! ! Y Y -.^.6.U ] _.&XuXpX9X-X-X-X-X-X-X-X-X",
"-X-X-X-X-X-X-X:Xm.x.' W { W I T n d K K ) y.}.`.6.] #.{.*XuXyX3X-X-X-X-X-X-X-X-X",
"-X-X-X-X-X-X-X1XA.f...E W W E T L n L ! ) 4.^.^.6.&.2.{.=XtX9X-X-X-X-X-X-X-X-X-X",
"-X-X-X-X-X-X-X:XA.d.x.D V E [ W R R R ( $.3.^.4.~.2.(.].=XtX:X-X-X-X-X-X-X-X-X-X",
":X-X-X-X-X-X-X-X;Xk.Z.X.V V ' O./ ( } $.$.-.6.2._.(.!.{.#X3X-X-X-X-X-X-X-X-X-X-X",
":X-X-X-X-X-X-X-X-Xm.h.C...D D +.{ / } o.$.w.e.~.]./.(..X7X-X-X-X-X-X-X-X-X-X-X-X",
"-X-X-X-X:X:X-X-X-X:X-X-X;Xx.v D Q E / } %.>.5.).v.v.'.2X-Xl.l.-X-X-X-X-X-X-X-X-X",
"-X-X-X-X:X:X-X:X-X-X-X-X;Xj.Z.z.k y B Q ' O.+.,.b.A.:X-Xl.j.j.l.-X-X-X-X-X-X-X-X",
"-X-X-X-X-X-X-X-X-X-X-X-Xh.d.d.h.:Xn.p.a.p.B.;X:X-X-X-X-Xh.d.d.h.-X-X-X-X-X-X-X-X"
};
