/* XPM */
static char *cat_front1714676597[] = {
/* columns rows colors chars-per-pixel */
"40 40 35 1 ",
"  c black",
". c #222034",
"X c #45283C",
"o c #663931",
"O c #8F563B",
"+ c #DF7126",
"@ c #D9A066",
"# c #EEC39A",
"$ c #FBF236",
"% c #99E550",
"& c #6ABE30",
"* c #37946E",
"= c #4B692F",
"- c #524B24",
"; c #323C39",
": c #3F3F74",
"> c #306082",
", c #5B6EE1",
"< c #639BFF",
"1 c #5FCDE4",
"2 c #CBDBFC",
"3 c white",
"4 c #9BADB7",
"5 c #847E87",
"6 c #696A6A",
"7 c #595652",
"8 c #76428A",
"9 c #AC3232",
"0 c #D95763",
"q c #D77BBA",
"w c #8F974A",
"e c #8A6F30",
"r c #7FA45D",
"t c #4F6937",
"y c #566D41",
/* pixels */
"=t===tyt==tt=tyt=tt==tt===tt==tttttt====",
"===t==tt==tt==-==tt=tyt===-===ttttyt==t=",
"==tyt=====yy=t@w====tyt==w@t======tt=tyt",
"==tyt=====ttew#@e===tyt=e@#wet=======tyt",
"===t======t-e@2#@e===t=O@#2@e-==tt===tyt",
"t=====tt==t-w#q246=tt==642q#w-==tyt==ttt",
"t====tyt===e@#q225ett=e522q#@e==ttt=====",
"t=tyttyt==-@@qq22#weeew@22qq@@-=========",
"t=tyttyt==y@#q#22#######22#q#@yt=====ttt",
"t=tt==tt=ew@#222222222222222##wet=tt=tyt",
"========-e@#22222222222222222#@e-tyt=tyt",
"====tt==-w#2224642222222465222#w-tyt=tyt",
"ttt=yytt=w#2225522222222255222#w-=tt==t=",
"tyt=tttt-w#2225#222222222#5222#w-t=====t",
"tyt====--w#222@+#2222222#+@222#w--=====t",
"tyt==t==-w#222#$#2222222#$#222#w-ttttt=t",
"=t==tyt=-e##22###2224222###22##w-tttyt=t",
"t===yyt--e@##222233252332222##@e--=tyt=t",
"t===ttt===e@##22332444#3322##@ee===tyt=t",
"t==========ew@#23322322332#@we=====tt==t",
"t=======tt==--w42222222224wo-===t======t",
"====tytttt===-y655555555567-=t==tttttt=t",
"ttt=tyttyy==w@44@4444444@44@w===tyt=====",
"tyt=====tt=w@#2222222222222#@w==tyt==tt=",
"ttt=======e@#2##233333332##2#@e=tt===tyt",
"======tt=e@###w42333333324w###@e=====tyt",
"=====tyt-e@@@we42333333324yw@#@e-====tyt",
"=t===tyt=e@@w--42333333324--w@@e-====ttt",
"tyt===tt=yeee=-5#2333332#@-=eeewe-t=====",
"tyt===tt=t====-@#########@----ewe-=ttt=t",
"ttt===tt==yytt-@#@@@@@@@#@-ttewwe-=tyt=t",
"===t===t==yytt-@##@Oeow##@twwwwy-==ttt=t",
"t=tyt=====tttt-@##w---w##@-yyyyt=======t",
"t=tyt=tt=====t-w##w---w##@----tytttt===t",
"t=tt=tyt======-w@@e-=-e@@w-yt=yyttyy==t=",
"=====tyt=======eeeet==eeeeyyt=ttttyt=tyt",
"tyt==tyt===ttt==--====tt==tyt====tyt=tyt",
"tyt===tt===tyt=ttt====tyt=tt==tt==tt=tyt",
"tyt=tt=====tyyttyt=tt=ttt=tt==yyt=tt=ttt",
"tyt=tyt====tyyttyt=yy=====yt==yyttyt===="
};
