/* XPM */
static char *_101396be7d947d7ae094275bcf5a899oAIAAXMI8hlxvfXi[] = {
/* columns rows colors chars-per-pixel */
"40 40 129 2 ",
"   c black",
".  c #050000",
"X  c #0B0000",
"o  c #0D0000",
"O  c #100000",
"+  c #1F0100",
"@  c #1E0500",
"#  c #330100",
"$  c #350100",
"%  c #3A0200",
"&  c #3C0900",
"*  c #440200",
"=  c #4E0300",
"-  c #5D0300",
";  c #5B0400",
":  c #5E0400",
">  c #511101",
",  c #501802",
"<  c #670500",
"1  c #680400",
"2  c #6D0600",
"3  c #770700",
"4  c #7B0000",
"5  c #7C0000",
"6  c #7B0400",
"7  c #7C0600",
"8  c #7B0800",
"9  c #7C0800",
"0  c #7F0F00",
"q  c #711B02",
"w  c #632103",
"e  c #672303",
"r  c #682203",
"t  c #6B2503",
"y  c #6C2503",
"u  c #7E2002",
"i  c #7A2603",
"p  c #7B3001",
"a  c #7C3101",
"s  c #7C4001",
"d  c #7C4402",
"f  c #7D5302",
"g  c #7C5402",
"h  c #7D6103",
"j  c #7D7A05",
"k  c #801001",
"l  c #831401",
"z  c #851701",
"x  c #861801",
"c  c #881A01",
"v  c #8A1D02",
"b  c #8C1F02",
"n  c #951D03",
"m  c #8E2102",
"M  c #8B2703",
"N  c #8E2503",
"B  c #822E05",
"V  c #932603",
"C  c #952703",
"Z  c #962803",
"A  c #982A04",
"S  c #9A2C04",
"D  c #9E2F05",
"F  c #8D3105",
"G  c #8F3406",
"H  c #9D3706",
"J  c #913C03",
"K  c #A12205",
"L  c #A12605",
"P  c #A03105",
"I  c #A43305",
"U  c #A73606",
"Y  c #A13B07",
"T  c #A13C07",
"R  c #AA3806",
"E  c #AD3A07",
"W  c #A83E08",
"Q  c #B03C07",
"!  c #B33E08",
"~  c #B93C09",
"^  c #844702",
"/  c #885804",
"(  c #AF4109",
")  c #B94501",
"_  c #B84507",
"`  c #B34209",
"'  c #B64009",
"]  c #B7450A",
"[  c #B84109",
"{  c #BD420A",
"}  c #BB4409",
"|  c #BC450A",
" . c #BE480B",
".. c #BD530B",
"X. c #916606",
"o. c #857B06",
"O. c #A26007",
"+. c #AF650A",
"@. c #BD6A0C",
"#. c #AF700B",
"$. c #BD740D",
"%. c #C0470B",
"&. c #C3490B",
"*. c #C4490B",
"=. c #C74B0C",
"-. c #C9480C",
";. c #C84C0C",
":. c #C94C0C",
">. c #7B8E07",
",. c #7E8F07",
"<. c #7A9107",
"1. c #7C9107",
"2. c #7EA30A",
"3. c #7BA50A",
"4. c #7EA40A",
"5. c #7FB20C",
"6. c #7FC30E",
"7. c #7DC40E",
"8. c #7FD210",
"9. c #9A930B",
"0. c #A3950C",
"q. c #89A50B",
"w. c #9BA90D",
"e. c #85B30D",
"r. c #A3A90E",
"t. c #82C90F",
"y. c #86CA10",
"u. c #88C910",
"i. c #80D210",
/* pixels */
",.4.6.i.8.8.8.8.8.8.8.7.4.1.,.,.,.4.6.i.i.i.i.i.8.8.8.6.3.<.>.,.,.4.6.8.8.8.8.8.",
"d j 5.t.y.u.u.u.u.u.u.e.j d s s d j 5.t.t.t.t.t.y.u.u.e.o.^ ^ ^ ^ o.e.u.u.u.u.y.",
"5 g ,.q.w.r.r.r.r.r.r.9./ 5 4 5 5 g ,.2.4.2.2.q.w.r.r.0.O.L K K L O.0.r.r.r.r.w.",
"5 p f X.#.$.$.$.$.$.$.+.J 5 4 5 5 a f h h h h X.#.$.$.@...{ { { { ..@.$.$.$.$.#.",
"9 6 5 C [ -.:.-.-.:.-.[ C 6 6 9 9 7 5 5 5 4 5 C [ -.:.-.:.:.:.:.:.:.-.-.-.:.-.[ ",
"9 4 5 n ~ -.-.-.-.-.-.~ C 6 6 9 9 5 5 5 5 4 5 n ~ -.-.-.-.:.:.:.:.-.-.-.-.-.-.~ ",
"9 6 9 C [ :.:.:.:.:.:.} D c 0 9 9 9 9 9 9 6 9 C [ :.:.:.:.:.:.:.:.:.:.:.:.:.:.[ ",
"9 6 9 C [ :.:.:.:.:.:.&.! P v 9 6 9 9 9 9 6 9 C [ :.:.:.:.:.:.:.:.:.:.:.:.:.:.[ ",
"9 6 9 C [ :.:.:.:.:.:.=.*.! V 9 6 9 9 9 9 6 9 C [ :.:.:.:.:.:.:.:.:.:.:.:.:.:.[ ",
"9 6 9 C [ :.:.:.:.:.:.:.:.[ C 6 6 9 9 9 9 6 9 C [ :.:.:.:.:.:.:.:.:.:.:.:.:.:.[ ",
"9 6 9 C [ :.:.:.:.:.:.:.:.[ Z 9 6 9 9 9 9 6 9 C [ :.:.:.:.:.:.:.:.:.:.:.:.:.:.[ ",
"9 6 9 C [ :.:.:.:.:.:.:.:.| I m k 9 7 9 9 6 9 C [ :.:.:.:.:.:.:.:.:.:.:.:.:.:.[ ",
"9 6 9 C [ :.:.:.:.:.:.:.:.&.[ U m 9 6 9 9 6 9 C [ :.:.:.:.:.:.:.:.:.:.:.:.:.:.[ ",
"9 6 9 C [ :.:.:.:.:.:.:.:.:.=.' C 9 6 9 9 6 9 C [ :.:.:.:.:.:.:.:.:.:.:.:.:.:.[ ",
"9 6 6 V [ :.:.:.:.:.:.:.:.:.:.[ Z 9 6 9 9 6 9 C [ :.:.:.:.:.:.:.:.:.:.:.:.:.:.[ ",
"9 9 k A [ :.:.:.:.:.:.:.:.:.:.[ C 9 6 9 9 6 9 C [ :.:.:.:.:.:.:.:.:.:.:.:.:.:.[ ",
"9 z Z R | :.:.:.:.:.:.:.:.:.:.[ C 9 6 9 9 6 9 C [ :.:.:.:.:.:.:.:.:.:.:.:.:.:.[ ",
"9 m E | *.:.:.:.:.:.:.:.:.:.:.[ C 9 6 9 9 6 9 C [ :.:.:.:.:.:.:.:.:.:.:.:.:.:.[ ",
"9 C [ :.:.:.:.:.:.:.:.:.:.:.:.[ C 6 6 9 9 6 9 Z [ :.:.:.:.:.:.:.:.:.:.:.:.:.:.[ ",
"9 Z [ :.:.:.:.:.:.:.:.:.:.:.:.[ C 6 6 9 9 6 9 Z [ :.:.:.:.:.:.:.:.:.:.:.:.:.:.[ ",
"9 C [ :.:.:.:.:.:.:.:.:.:.:.:.[ D z 0 9 9 6 9 V ! &.=.:.:.:.:.:.:.:.:.:.:.=.&.! ",
"9 C [ :.:.:.:.:.:.:.:.:.:.:.:.%.! D c 9 6 6 9 v D ! &.:.:.:.:.:.:.:.:.:.:.%.! D ",
"9 C [ :.:.:.:.:.:.:.:.:.:.:.:.=.&.! V 9 6 9 9 0 x D [ =.:.:.:.:.:.:.:.:.:.[ D x ",
"9 C [ :.:.:.:.:.:.:.:.:.:.:.:.:.:.[ Z 9 6 9 9 6 6 b U [ &.:.:.:.:.:.:.:.:.[ C 6 ",
"9 C [ :.:.:.:.:.:.:.:.:.:.:.:.:.:.[ Z 9 6 9 9 6 6 k m P | :.:.:.:.:.:.:.:.[ C 6 ",
"9 C [ :.:.:.:.:.:.:.:.:.:.:.:.:.:.[ C 9 6 9 9 9 9 6 9 Z [ :.:.:.:.:.:.:.:.[ C 9 ",
"9 C [ :.:.:.:.:.:.:.:.:.:.:.:.:.:.[ C 9 6 9 9 9 9 6 6 C [ :.:.:.:.:.:.:.:.[ C 9 ",
"9 C [ :.:.:.:.:.:.:.:.:.:.:.:.:.:.[ C 9 6 9 9 9 9 6 9 C [ :.:.:.:.:.:.:.:.[ C 9 ",
"9 C [ :.:.:.:.:.:.:.:.:.:.:.:.:.:.[ C 9 6 9 9 9 9 6 9 C [ :.:.:.:.:.:.:.:.[ C 9 ",
"9 C [ :.:.:.:.:.:.:.:.:.:.:.:.:.:.[ C 9 6 9 9 9 9 6 9 C [ :.:.:.:.:.:.:.:.[ C 9 ",
"9 C [ :.:.:.:.:.:.:.:.:.:.:.:.:.:.[ C 9 6 9 9 9 9 6 9 C [ :.:.:.:.:.:.:.:.[ C 9 ",
"9 C [ :.:.:.:.:.:.:.:.:.:.:.:.:.:.[ C 9 6 9 9 9 9 6 9 C [ :.:.:.:.:.:.:.:.[ C 9 ",
"7 C [ :.:.:.:.:.:.:.:.:.:.:.:.:.:.[ C 9 6 9 9 9 9 6 9 C [ :.:.:.:.:.:.:.:.[ C 9 ",
"6 C [ :.:.:.:.:.:.:.:.:.:.:.:.:.:.[ Z 9 7 9 9 9 9 6 9 C [ :.:.:.:.:.:.:.:.[ C 9 ",
"l S [ :.:.:.:.:.:.:.:.:.:.:.:.=.&.! N 3 3 3 3 6 8 6 9 C [ :.:.:.:.:.:.:.:.[ C 9 ",
"S E %.:.:.:.:.:.:.:.:.:.:.:.:. .W F q : - : : < 3 7 9 Z [ :.:.:.:.:.:.:.:.[ C 9 ",
"Q %.=.:.:.:.:.:.:.:.:.:.:.:.:.` B , & # # # # = 2 6 8 V ' =.:.:.:.:.:.:.:.[ C 8 ",
"' :.:.:.:.:.:.:.:.:.:.:.:.:.:.` y             $ ; 1 1 u H ` &.:.:.:.:.:.:.' M 1 ",
"` :.:.:.:.:.:.:.:.:.:.:.:.:.:.( t             + % * * > r G ] :.:.:.:.:.:.` i * ",
"Y } } } } } } } ] ] } } } } } Y w             . o O O X @ e T _ ) ) _ } } Y e O "
};
